<svg width="20" height="20" viewBox="0 0 20 20" fill="none" xmlns="http://www.w3.org/2000/svg">
<g clip-path="url(#clip0_161_4207)">
<path d="M16.4548 7.29505C16.4613 7.17681 16.4648 7.05779 16.4648 6.93798C16.4648 3.37326 13.5647 0.473145 9.99999 0.473145C6.43527 0.473145 3.53515 3.37322 3.53515 6.93795C3.53515 7.05779 3.53871 7.17677 3.54515 7.29502C1.44344 8.36345 0 10.5472 0 13.062C0 16.6267 2.90012 19.5268 6.46484 19.5268C7.76871 19.5268 8.98335 19.1385 9.99999 18.4719C11.0166 19.1385 12.2313 19.5268 13.5351 19.5268C17.0999 19.5268 20 16.6267 20 13.062C20 10.5472 18.5566 8.36345 16.4548 7.29505ZM9.99999 16.9977C8.94425 16.0484 8.27128 14.6818 8.24343 13.1602C8.80218 13.3181 9.39136 13.4028 9.99999 13.4028C10.6086 13.4028 11.1978 13.3181 11.7566 13.1602C11.7287 14.6818 11.0557 16.0484 9.99999 16.9977ZM9.99999 12.2309C9.42624 12.2309 8.87371 12.1388 8.35589 11.9692C8.5914 10.8518 9.18035 9.86322 9.99999 9.12626C10.8196 9.86322 11.4086 10.8518 11.6441 11.9692C11.1263 12.1388 10.5737 12.2309 9.99999 12.2309ZM7.26878 11.4702C6.03394 10.7233 5.12746 9.48626 4.82074 8.03076C5.33851 7.86115 5.89109 7.769 6.46484 7.769C7.3941 7.769 8.268 8.01002 9.02785 8.43236C8.18652 9.25169 7.56687 10.2974 7.26878 11.4702ZM10.9721 8.4324C11.732 8.01005 12.6059 7.76904 13.5351 7.76904C14.1089 7.76904 14.6614 7.86115 15.1792 8.0308C14.8725 9.4863 13.966 10.7234 12.7312 11.4703C12.4331 10.2974 11.8135 9.25169 10.9721 8.4324ZM9.99999 1.64498C12.8857 1.64498 15.2391 3.96638 15.2917 6.83974C14.733 6.68181 14.1438 6.59713 13.5351 6.59713C12.2313 6.59713 11.0166 6.98548 9.99999 7.65209C8.98335 6.98548 7.76871 6.59713 6.46484 6.59713C5.85621 6.59713 5.26703 6.68177 4.70828 6.83974C4.76086 3.96638 7.11425 1.64498 9.99999 1.64498ZM6.46484 18.355C3.54629 18.355 1.17187 15.9806 1.17187 13.062C1.17187 11.142 2.19957 9.45763 3.73363 8.5297C4.19707 10.3532 5.43746 11.8698 7.08031 12.7049C7.07382 12.8231 7.07031 12.9422 7.07031 13.062C7.07031 14.8754 7.82113 16.5165 9.02785 17.6916C8.268 18.114 7.3941 18.355 6.46484 18.355ZM13.5351 18.355C12.6059 18.355 11.732 18.114 10.9721 17.6916C12.1789 16.5165 12.9297 14.8754 12.9297 13.062C12.9297 12.9422 12.9261 12.8232 12.9197 12.7049C14.5625 11.8698 15.8029 10.3532 16.2664 8.52974C17.8004 9.45759 18.8281 11.142 18.8281 13.062C18.8281 15.9806 16.4537 18.355 13.5351 18.355Z" fill="black"/>
</g>
<defs>
<clipPath id="clip0_161_4207">
<rect width="20" height="20" fill="white"/>
</clipPath>
</defs>
</svg>
