<svg width="19" height="19" viewBox="0 0 19 19" fill="none" xmlns="http://www.w3.org/2000/svg">
<g clip-path="url(#clip0_161_4228)">
<path fill-rule="evenodd" clip-rule="evenodd" d="M9.50023 11.245L5.06492 6.8103L4.43555 7.43968L9.50023 12.505L14.5649 7.43968L13.9355 6.8103L9.50023 11.245Z" fill="black"/>
<path fill-rule="evenodd" clip-rule="evenodd" d="M15.3187 0.742188H3.68125C2.90186 0.742502 2.15448 1.05225 1.60337 1.60337C1.05225 2.15448 0.742502 2.90186 0.742188 3.68125V15.3187C0.742502 16.0981 1.05225 16.8455 1.60337 17.3966C2.15448 17.9477 2.90186 18.2575 3.68125 18.2578H15.3187C16.0981 18.2575 16.8455 17.9477 17.3966 17.3966C17.9477 16.8455 18.2575 16.0981 18.2578 15.3187V3.68125C18.2575 2.90186 17.9477 2.15448 17.3966 1.60337C16.8455 1.05225 16.0981 0.742502 15.3187 0.742188ZM17.3672 15.3187C17.3669 15.8619 17.151 16.3828 16.7669 16.7669C16.3828 17.151 15.8619 17.3669 15.3187 17.3672H3.68125C3.13807 17.3669 2.61722 17.151 2.23313 16.7669C1.84905 16.3828 1.63313 15.8619 1.63281 15.3187V3.68125C1.63313 3.13807 1.84905 2.61722 2.23313 2.23313C2.61722 1.84905 3.13807 1.63313 3.68125 1.63281H15.3187C15.8619 1.63313 16.3828 1.84905 16.7669 2.23313C17.151 2.61722 17.3669 3.13807 17.3672 3.68125V15.3187Z" fill="black"/>
</g>
<defs>
<clipPath id="clip0_161_4228">
<rect width="19" height="19" fill="white"/>
</clipPath>
</defs>
</svg>
