<svg width="20" height="20" viewBox="0 0 20 20" fill="none" xmlns="http://www.w3.org/2000/svg">
<path d="M18.125 15H16.25V13.125C16.25 12.9592 16.1842 12.8003 16.0669 12.6831C15.9497 12.5658 15.7908 12.5 15.625 12.5C15.4592 12.5 15.3003 12.5658 15.1831 12.6831C15.0658 12.8003 15 12.9592 15 13.125V15H13.125C12.9592 15 12.8003 15.0658 12.6831 15.1831C12.5658 15.3003 12.5 15.4592 12.5 15.625C12.5 15.7908 12.5658 15.9497 12.6831 16.0669C12.8003 16.1842 12.9592 16.25 13.125 16.25H15V18.125C15 18.2908 15.0658 18.4497 15.1831 18.5669C15.3003 18.6842 15.4592 18.75 15.625 18.75C15.7908 18.75 15.9497 18.6842 16.0669 18.5669C16.1842 18.4497 16.25 18.2908 16.25 18.125V16.25H18.125C18.2908 16.25 18.4497 16.1842 18.5669 16.0669C18.6842 15.9497 18.75 15.7908 18.75 15.625C18.75 15.4592 18.6842 15.3003 18.5669 15.1831C18.4497 15.0658 18.2908 15 18.125 15Z" fill="#2D2D2D"/>
<path d="M10.625 15H3.125C2.95924 15 2.80027 14.9342 2.68306 14.8169C2.56585 14.6997 2.5 14.5408 2.5 14.375V12.7563L5 10.2563L6.43125 11.6937C6.48935 11.7523 6.55848 11.7988 6.63464 11.8306C6.7108 11.8623 6.79249 11.8786 6.875 11.8786C6.95751 11.8786 7.0392 11.8623 7.11536 11.8306C7.19152 11.7988 7.26065 11.7523 7.31875 11.6937L10.625 8.38125L13.3063 11.0687C13.4239 11.1864 13.5836 11.2526 13.75 11.2526C13.9164 11.2526 14.0761 11.1864 14.1937 11.0687C14.3114 10.9511 14.3776 10.7914 14.3776 10.625C14.3776 10.4586 14.3114 10.2989 14.1937 10.1813L11.0687 7.05625C11.0106 6.99767 10.9415 6.95117 10.8654 6.91944C10.7892 6.88771 10.7075 6.87138 10.625 6.87138C10.5425 6.87138 10.4608 6.88771 10.3846 6.91944C10.3085 6.95117 10.2394 6.99767 10.1813 7.05625L6.875 10.3687L5.44375 8.93125C5.38565 8.87267 5.31652 8.82617 5.24036 8.79444C5.1642 8.76271 5.08251 8.74638 5 8.74638C4.91749 8.74638 4.8358 8.76271 4.75964 8.79444C4.68348 8.82617 4.61435 8.87267 4.55625 8.93125L2.5 10.9937V3.125C2.5 2.95924 2.56585 2.80027 2.68306 2.68306C2.80027 2.56585 2.95924 2.5 3.125 2.5H14.375C14.5408 2.5 14.6997 2.56585 14.8169 2.68306C14.9342 2.80027 15 2.95924 15 3.125V10.625C15 10.7908 15.0658 10.9497 15.1831 11.0669C15.3003 11.1842 15.4592 11.25 15.625 11.25C15.7908 11.25 15.9497 11.1842 16.0669 11.0669C16.1842 10.9497 16.25 10.7908 16.25 10.625V3.125C16.25 2.62772 16.0525 2.15081 15.7008 1.79917C15.3492 1.44754 14.8723 1.25 14.375 1.25H3.125C2.62772 1.25 2.15081 1.44754 1.79917 1.79917C1.44754 2.15081 1.25 2.62772 1.25 3.125V14.375C1.25 14.8723 1.44754 15.3492 1.79917 15.7008C2.15081 16.0525 2.62772 16.25 3.125 16.25H10.625C10.7908 16.25 10.9497 16.1842 11.0669 16.0669C11.1842 15.9497 11.25 15.7908 11.25 15.625C11.25 15.4592 11.1842 15.3003 11.0669 15.1831C10.9497 15.0658 10.7908 15 10.625 15Z" fill="#2D2D2D"/>
<path d="M5 5.625C5 5.99584 5.10997 6.35835 5.31599 6.66669C5.52202 6.97504 5.81486 7.21536 6.15747 7.35727C6.50008 7.49919 6.87708 7.53632 7.24079 7.46397C7.60451 7.39163 7.9386 7.21305 8.20083 6.95083C8.46305 6.6886 8.64163 6.35451 8.71397 5.99079C8.78632 5.62708 8.74919 5.25008 8.60727 4.90747C8.46536 4.56486 8.22504 4.27202 7.91669 4.06599C7.60835 3.85997 7.24584 3.75 6.875 3.75C6.37772 3.75 5.90081 3.94754 5.54917 4.29917C5.19754 4.65081 5 5.12772 5 5.625ZM7.5 5.625C7.5 5.74861 7.46334 5.86945 7.39467 5.97223C7.32599 6.07501 7.22838 6.15512 7.11418 6.20242C6.99997 6.24973 6.87431 6.26211 6.75307 6.23799C6.63183 6.21388 6.52047 6.15435 6.43306 6.06694C6.34565 5.97953 6.28612 5.86817 6.26201 5.74693C6.23789 5.62569 6.25027 5.50003 6.29758 5.38582C6.34488 5.27162 6.42499 5.17401 6.52777 5.10533C6.63055 5.03666 6.75139 5 6.875 5C7.04076 5 7.19973 5.06585 7.31694 5.18306C7.43415 5.30027 7.5 5.45924 7.5 5.625Z" fill="#2D2D2D"/>
</svg>
