<svg width="20" height="20" viewBox="0 0 20 20" fill="none" xmlns="http://www.w3.org/2000/svg">
<path d="M18.0364 5.19995H1.96439C1.10199 5.19995 0.400391 5.90155 0.400391 6.76395V13.6358C0.400391 14.4982 1.10199 15.1998 1.96439 15.1998H18.0362C18.8986 15.1998 19.6002 14.4982 19.6002 13.6358V6.76395C19.6002 5.90155 18.8986 5.19995 18.0364 5.19995ZM19.0004 13.636C19.0004 14.1676 18.5678 14.6 18.0364 14.6H1.96439C1.43279 14.6 1.00039 14.1674 1.00039 13.636V6.76415C1.00039 6.23255 1.43299 5.80015 1.96439 5.80015H18.0362C18.5678 5.80015 19.0002 6.23275 19.0002 6.76415L19.0004 13.636Z" fill="black"/>
<path d="M18.0356 6.40002H1.96361C1.76281 6.40002 1.59961 6.56322 1.59961 6.76402V13.6358C1.59961 13.8366 1.76281 13.9998 1.96361 13.9998H18.0354C18.2362 13.9998 18.3994 13.8366 18.3994 13.6358V6.76402C18.3994 6.56322 18.2362 6.40002 18.0356 6.40002ZM17.7996 13.4H2.19961V7.00002H17.7996V13.4Z" fill="black"/>
</svg>
