<svg width="20" height="20" viewBox="0 0 20 20" fill="none" xmlns="http://www.w3.org/2000/svg">
<g clip-path="url(#clip0_161_4195)">
<path d="M17.071 7.07107V2.92895H12.9289L9.99998 0L7.07107 2.92895H2.92891V7.07107L0 10L2.92891 12.929V17.0711H7.07107L9.99998 20L12.9289 17.0711H17.071V12.9289L20 9.99998L17.071 7.07107ZM15.8925 12.4408V15.8925H12.4407L9.99994 18.3333L7.55917 15.8925H4.10739V12.4408L1.66661 9.99998L4.10739 7.55917V4.10743H7.55917L9.99994 1.66661L12.4407 4.10743H15.8925V7.55917L18.3333 9.99998L15.8925 12.4408Z" fill="#2D2D2D"/>
<path d="M14.7137 8.0473V5.28589H11.9523L9.99969 3.33325L8.04705 5.28589H5.28564V8.0473L3.33301 9.99993L5.28564 11.9526V14.714H8.04705L9.99969 16.6666L11.9523 14.714H14.7137V11.9526L16.6664 9.99993L14.7137 8.0473ZM13.5352 11.4645V13.5355H11.4642L9.99969 15L8.53523 13.5355H6.46415V11.4645L4.9997 9.99997L6.46415 8.53548V6.46444H8.53523L9.99969 4.99994L11.4642 6.46444H13.5352V8.53548L14.9997 9.99997L13.5352 11.4645Z" fill="#2D2D2D"/>
<path d="M9.9996 7.64294C8.69998 7.64294 7.64258 8.7003 7.64258 9.99997C7.64258 11.2996 8.69998 12.357 9.9996 12.357C11.2993 12.357 12.3566 11.2996 12.3566 9.99997C12.3566 8.7003 11.2993 7.64294 9.9996 7.64294ZM9.9996 11.1785C9.34977 11.1785 8.82109 10.6498 8.82109 9.99997C8.82109 9.35014 9.34977 8.82146 9.9996 8.82146C10.6494 8.82146 11.1781 9.35014 11.1781 9.99997C11.1781 10.6498 10.6494 11.1785 9.9996 11.1785Z" fill="#2D2D2D"/>
</g>
<defs>
<clipPath id="clip0_161_4195">
<rect width="20" height="20" fill="white"/>
</clipPath>
</defs>
</svg>
