<svg width="20" height="20" viewBox="0 0 20 20" fill="none" xmlns="http://www.w3.org/2000/svg">
<path d="M18.3333 5.83337H1.66667C0.75 5.83337 0 6.58337 0 7.50004V13.3334C0 14.25 0.75 15 1.66667 15H18.3333C19.25 15 20 14.25 20 13.3334V7.50004C20 6.58337 19.25 5.83337 18.3333 5.83337ZM19.1667 13.3334C19.1667 13.7925 18.7925 14.1667 18.3333 14.1667H1.66667C1.2075 14.1667 0.833333 13.7925 0.833333 13.3334V7.50004C0.833333 7.04087 1.2075 6.66671 1.66667 6.66671H18.3333C18.7925 6.66671 19.1667 7.04087 19.1667 7.50004V13.3334Z" fill="black"/>
<path d="M5 11.6667V10.8334V9.58337C5 8.89421 4.43917 8.33337 3.75 8.33337H2.91667C2.68667 8.33337 2.5 8.52004 2.5 8.75004C2.5 8.98004 2.68667 9.16671 2.91667 9.16671H3.75C3.97917 9.16671 4.16667 9.35337 4.16667 9.58337V10H3.33333C2.875 10 2.5 10.375 2.5 10.8334V11.6667C2.5 12.125 2.875 12.5 3.33333 12.5H5C5.23 12.5 5.41667 12.3134 5.41667 12.0834C5.41667 11.8534 5.23 11.6667 5 11.6667ZM4.16667 11.6667H3.33333V10.8334H4.16667V11.6667Z" fill="black"/>
<path d="M5.83301 8.33333H6.66634V12.5H5.83301V13.3333H8.33301V12.5H7.49967V8.33333H8.33301V7.5H5.83301V8.33333Z" fill="black"/>
</svg>
