<svg width="18" height="18" viewBox="0 0 18 18" fill="none" xmlns="http://www.w3.org/2000/svg">
<g clip-path="url(#clip0_161_4191)">
<path d="M4.74805 6.93028H5.80273V6.04688H8.47285V12.0533H7.55893V13.108H10.4415V12.0533H9.52754V6.04688H12.1977V6.93028H13.2523V4.99219H4.74805V6.93028Z" fill="#2D2D2D"/>
<path d="M16.7432 14.0978V3.90217C17.4799 3.59824 18 2.87255 18 2.02736C18 0.909457 17.0905 0 15.9726 0C15.1275 0 14.4018 0.520066 14.0978 1.25684H3.90217C3.59824 0.520066 2.87255 0 2.02736 0C0.909457 0 0 0.909457 0 2.02736C0 2.87255 0.520066 3.59828 1.25684 3.9022V14.0978C0.520066 14.4018 0 15.1275 0 15.9726C0 17.0905 0.909457 18 2.02736 18C2.87255 18 3.59824 17.4799 3.90217 16.7432H14.0978C14.4018 17.4799 15.1275 18 15.9726 18C17.0905 18 18 17.0905 18 15.9726C18 15.1275 17.4799 14.4018 16.7432 14.0978ZM13.9656 15.6885H4.03436C3.90878 14.7976 3.20235 14.0912 2.31152 13.9656V4.03436C3.20235 3.90881 3.90878 3.20235 4.03436 2.31152H13.9656C14.0912 3.20238 14.7977 3.90881 15.6885 4.03436V13.9656C14.7977 14.0912 14.0912 14.7976 13.9656 15.6885ZM15.9726 1.05469C16.509 1.05469 16.9453 1.49101 16.9453 2.02736C16.9453 2.5637 16.509 3.00002 15.9726 3.00002C15.4363 3.00002 15 2.5637 15 2.02736C15 1.49101 15.4363 1.05469 15.9726 1.05469ZM2.02736 1.05469C2.56366 1.05469 2.99999 1.49101 2.99999 2.02736C2.99999 2.5637 2.56366 3.00002 2.02736 3.00002C1.49101 2.99999 1.05469 2.56366 1.05469 2.02736C1.05469 1.49101 1.49101 1.05469 2.02736 1.05469ZM2.02736 16.9453C1.49101 16.9453 1.05469 16.509 1.05469 15.9726C1.05469 15.4363 1.49101 15 2.02736 15C2.56366 15 2.99999 15.4363 2.99999 15.9726C2.99999 16.509 2.56366 16.9453 2.02736 16.9453ZM15.9726 16.9453C15.4363 16.9453 15 16.509 15 15.9726C15 15.4363 15.4363 15 15.9726 15C16.509 15 16.9453 15.4363 16.9453 15.9726C16.9453 16.509 16.509 16.9453 15.9726 16.9453Z" fill="#2D2D2D"/>
</g>
<defs>
<clipPath id="clip0_161_4191">
<rect width="18" height="18" fill="white"/>
</clipPath>
</defs>
</svg>
