<svg width="20" height="20" viewBox="0 0 20 20" fill="none" xmlns="http://www.w3.org/2000/svg">
<g clip-path="url(#clip0_161_4215)">
<path d="M7.69531 0H1.53546C0.688822 0 0 0.688822 0 1.53546V7.69531C0 8.54189 0.688822 9.23077 1.53546 9.23077H7.69531C8.54189 9.23077 9.23077 8.54195 9.23077 7.69531V1.53546C9.23077 0.688822 8.54195 0 7.69531 0ZM8.20511 7.69531C8.20511 7.97638 7.97638 8.20511 7.69531 8.20511H1.53546C1.25439 8.20511 1.02566 7.97638 1.02566 7.69531V1.53546C1.02566 1.25439 1.25439 1.02566 1.53546 1.02566H7.69531C7.97638 1.02566 8.20511 1.25439 8.20511 1.53546V7.69531Z" fill="#2D2D2D"/>
<path d="M18.4648 0H12.305C11.4584 0 10.7695 0.688822 10.7695 1.53546V7.69531C10.7695 8.54189 11.4584 9.23077 12.305 9.23077H18.4648C19.3114 9.23077 20.0003 8.54195 20.0003 7.69531V1.53546C20.0003 0.688822 19.3115 0 18.4648 0ZM18.9746 7.69531C18.9746 7.97638 18.7459 8.20511 18.4648 8.20511H12.305C12.0239 8.20511 11.7952 7.97638 11.7952 7.69531V1.53546C11.7952 1.25439 12.0239 1.02566 12.305 1.02566H18.4648C18.7459 1.02566 18.9746 1.25439 18.9746 1.53546V7.69531Z" fill="#2D2D2D"/>
<path d="M7.69531 10.7693H1.53546C0.688822 10.7693 0 11.4581 0 12.3047V18.4646C0 19.3112 0.688822 20.0001 1.53546 20.0001H7.69531C8.54189 20.0001 9.23077 19.3112 9.23077 18.4646V12.3047C9.23077 11.4581 8.54195 10.7693 7.69531 10.7693ZM8.20511 18.4646C8.20511 18.7457 7.97638 18.9744 7.69531 18.9744H1.53546C1.25439 18.9744 1.02566 18.7457 1.02566 18.4646V12.3047C1.02566 12.0237 1.25439 11.7949 1.53546 11.7949H7.69531C7.97638 11.7949 8.20511 12.0237 8.20511 12.3047V18.4646Z" fill="#2D2D2D"/>
<path d="M18.4648 10.7693H12.305C11.4584 10.7693 10.7695 11.4581 10.7695 12.3047V18.4646C10.7695 19.3112 11.4584 20.0001 12.305 20.0001H18.4648C19.3114 20.0001 20.0003 19.3112 20.0003 18.4646V12.3047C20.0003 11.4581 19.3115 10.7693 18.4648 10.7693ZM18.9746 18.4646C18.9746 18.7457 18.7459 18.9744 18.4648 18.9744H12.305C12.0239 18.9744 11.7952 18.7457 11.7952 18.4646V12.3047C11.7952 12.0237 12.0239 11.7949 12.305 11.7949H18.4648C18.7459 11.7949 18.9746 12.0237 18.9746 12.3047V18.4646Z" fill="#2D2D2D"/>
</g>
<defs>
<clipPath id="clip0_161_4215">
<rect width="20" height="20" fill="white"/>
</clipPath>
</defs>
</svg>
