<svg width="20" height="20" viewBox="0 0 20 20" fill="none" xmlns="http://www.w3.org/2000/svg">
<path d="M14.8434 6.90254C14.5732 5.82277 13.9501 4.86419 13.0729 4.17902C12.1958 3.49386 11.1149 3.12137 10.0018 3.12073C8.88876 3.12008 7.8074 3.49131 6.92943 4.17546C6.05147 4.8596 5.42724 5.81746 5.15586 6.89692C3.87575 7.01705 2.69112 7.6257 1.84804 8.59643C1.00496 9.56716 0.568226 10.8254 0.62856 12.1097C0.688894 13.394 1.24166 14.6057 2.17203 15.4931C3.10241 16.3805 4.33888 16.8754 5.62461 16.875H7.49961C7.66537 16.875 7.82434 16.8092 7.94155 16.692C8.05876 16.5748 8.12461 16.4158 8.12461 16.25C8.12461 16.0843 8.05876 15.9253 7.94155 15.8081C7.82434 15.6909 7.66537 15.625 7.49961 15.625H5.62461C5.13215 15.6265 4.64423 15.5309 4.18871 15.3438C3.73319 15.1566 3.31899 14.8816 2.96976 14.5344C2.26444 13.8332 1.86657 12.8805 1.86367 11.886C1.86077 10.8914 2.25308 9.93644 2.95429 9.23112C3.6555 8.52581 4.60817 8.12794 5.60273 8.12504C5.7631 8.13711 5.92224 8.08919 6.04927 7.99056C6.17631 7.89194 6.26218 7.74965 6.29023 7.59129C6.4175 6.69883 6.86247 5.88224 7.54343 5.2915C8.22439 4.70076 9.09562 4.37552 9.99711 4.37552C10.8986 4.37552 11.7698 4.70076 12.4508 5.2915C13.1317 5.88224 13.5767 6.69883 13.704 7.59129C13.7367 7.74415 13.8214 7.88092 13.9437 7.97826C14.066 8.07561 14.2183 8.12748 14.3746 8.12504C15.3692 8.12504 16.323 8.52013 17.0263 9.22339C17.7295 9.92665 18.1246 10.8805 18.1246 11.875C18.1246 12.8696 17.7295 13.8234 17.0263 14.5267C16.323 15.23 15.3692 15.625 14.3746 15.625H12.4996C12.3338 15.625 12.1749 15.6909 12.0577 15.8081C11.9405 15.9253 11.8746 16.0843 11.8746 16.25C11.8746 16.4158 11.9405 16.5748 12.0577 16.692C12.1749 16.8092 12.3338 16.875 12.4996 16.875H14.3746C15.6509 16.8617 16.8738 16.3607 17.7927 15.4748C18.7116 14.5889 19.2568 13.3851 19.3168 12.1101C19.3767 10.8351 18.9468 9.58545 18.115 8.61724C17.2833 7.64903 16.1128 7.03556 14.8434 6.90254Z" fill="#2D2D2D"/>
<path d="M12.6833 12.3169C12.8011 12.4307 12.959 12.4937 13.1229 12.4923C13.2868 12.4909 13.4435 12.4251 13.5594 12.3092C13.6753 12.1934 13.741 12.0366 13.7424 11.8727C13.7439 11.7089 13.6809 11.551 13.567 11.4331L10.442 8.30811C10.3248 8.19094 10.1659 8.12512 10.0001 8.12512C9.8344 8.12512 9.67546 8.19094 9.55826 8.30811L6.43326 11.4331C6.31941 11.551 6.25641 11.7089 6.25784 11.8727C6.25926 12.0366 6.32499 12.1934 6.44087 12.3092C6.55675 12.4251 6.71351 12.4909 6.87738 12.4923C7.04125 12.4937 7.19913 12.4307 7.31701 12.3169L9.37513 10.2587V18.125C9.37513 18.2907 9.44098 18.4497 9.55819 18.5669C9.6754 18.6841 9.83437 18.75 10.0001 18.75C10.1659 18.75 10.3249 18.6841 10.4421 18.5669C10.5593 18.4497 10.6251 18.2907 10.6251 18.125V10.2587L12.6833 12.3169Z" fill="#2D2D2D"/>
</svg>
