<svg width="18" height="18" viewBox="0 0 18 18" fill="none" xmlns="http://www.w3.org/2000/svg">
<g clip-path="url(#clip0_1_102)">
<path d="M8.97012 16.4751H2.24251C1.82988 16.4751 1.49502 16.1402 1.49502 15.7276V2.27242C1.49502 1.85979 1.82992 1.52493 2.24251 1.52493H8.97012C9.38348 1.52493 9.71761 1.19081 9.71761 0.777439C9.71761 0.364072 9.38348 0.0298767 8.97012 0.0298767H2.24251C1.00614 0.0298767 0 1.03605 0 2.27242V15.7276C0 16.9639 1.00614 17.9701 2.24251 17.9701H8.97012C9.38348 17.9701 9.71761 17.636 9.71761 17.2226C9.71761 16.8092 9.38348 16.4751 8.97012 16.4751Z" fill="#2D2D2D"/>
<path d="M17.7773 8.46778L13.2324 3.98272C12.9394 3.69268 12.4655 3.69644 12.1754 3.99021C11.8854 4.28397 11.8884 4.75714 12.1829 5.04718L15.4308 8.25248H6.72759C6.31423 8.25248 5.9801 8.58661 5.9801 8.99997C5.9801 9.41334 6.31423 9.7475 6.72759 9.7475H15.4308L12.1829 12.9528C11.8884 13.2428 11.8862 13.716 12.1754 14.0098C12.3219 14.1578 12.5148 14.2325 12.7077 14.2325C12.8976 14.2325 13.0874 14.1608 13.2324 14.0172L17.7773 9.53217C17.9193 9.39165 18 9.20026 18 8.99994C18 8.79969 17.92 8.60907 17.7773 8.46778Z" fill="#2D2D2D"/>
</g>
<defs>
<clipPath id="clip0_1_102">
<rect width="18" height="18" fill="white"/>
</clipPath>
</defs>
</svg>
