<svg width="21" height="21" viewBox="0 0 21 21" fill="none" xmlns="http://www.w3.org/2000/svg">
<g clip-path="url(#clip0_1_60)">
<path d="M10.5 6.125C10.4466 6.125 10.3932 6.11538 10.3425 6.09613L4.655 3.90863C4.48613 3.84387 4.375 3.68112 4.375 3.5C4.375 3.31888 4.48613 3.15613 4.655 3.09137L10.3425 0.903875C10.444 0.865375 10.5551 0.865375 10.6566 0.903875L16.3441 3.09137C16.5139 3.15613 16.625 3.31888 16.625 3.5C16.625 3.68112 16.5139 3.84387 16.345 3.90863L10.6575 6.09613C10.6068 6.11538 10.5534 6.125 10.5 6.125ZM6.03138 3.5L10.5 5.2185L14.9686 3.5L10.5 1.7815L6.03138 3.5Z" fill="#2D2D2D"/>
<path d="M10.5 13.125C10.4466 13.125 10.3932 13.1154 10.3425 13.0961L4.655 10.9086C4.48613 10.8439 4.375 10.6811 4.375 10.5V3.5C4.375 3.2585 4.571 3.0625 4.8125 3.0625C5.054 3.0625 5.25 3.2585 5.25 3.5V10.1999L10.5 12.2194L15.75 10.1999V3.5C15.75 3.2585 15.946 3.0625 16.1875 3.0625C16.429 3.0625 16.625 3.2585 16.625 3.5V10.5C16.625 10.6811 16.5139 10.8439 16.345 10.9086L10.6575 13.0961C10.6068 13.1154 10.5534 13.125 10.5 13.125Z" fill="#2D2D2D"/>
<path d="M10.5 13.125C10.2585 13.125 10.0625 12.929 10.0625 12.6875V5.6875C10.0625 5.446 10.2585 5.25 10.5 5.25C10.7415 5.25 10.9375 5.446 10.9375 5.6875V12.6875C10.9375 12.929 10.7415 13.125 10.5 13.125Z" fill="#2D2D2D"/>
<path d="M9.18748 19.25C9.05448 19.25 8.92323 19.1896 8.83748 19.075C8.69223 18.8816 8.73161 18.6078 8.92498 18.4625L10.2077 17.5L8.92498 16.5375C8.73161 16.3923 8.69223 16.1184 8.83748 15.925C8.98273 15.7316 9.25661 15.6931 9.44998 15.8375L11.2 17.15C11.3102 17.2323 11.375 17.3626 11.375 17.5C11.375 17.6374 11.3102 17.7678 11.2 17.85L9.44998 19.1625C9.37123 19.2211 9.27936 19.25 9.18748 19.25Z" fill="#2D2D2D"/>
<path d="M10.5 17.9375C9.177 17.9375 7.92488 17.8745 6.77775 17.7511C5.1905 17.591 0 16.9103 0 14.875C0 14.0446 0.856625 13.3508 2.5445 12.8135C2.82188 12.7278 3.11938 12.9439 3.11938 13.2309C3.11938 13.4426 2.97238 13.6194 2.77288 13.6596C1.37287 14.1103 0.875 14.5959 0.875 14.875C0.875 15.4578 2.73438 16.464 6.86875 16.8805C7.987 17.0013 9.20763 17.0625 10.5 17.0625C10.7415 17.0625 10.9375 17.2585 10.9375 17.5C10.9375 17.7415 10.7415 17.9375 10.5 17.9375Z" fill="#2D2D2D"/>
<path d="M13.5537 17.8062C13.328 17.8062 13.1364 17.633 13.118 17.4046C13.0987 17.164 13.2781 16.9522 13.5187 16.933C18.025 16.5646 20.125 15.4875 20.125 14.875C20.125 14.5932 19.6184 14.1024 18.1895 13.6474C17.9594 13.5739 17.8325 13.328 17.9051 13.0979C17.9786 12.8677 18.2236 12.7409 18.4546 12.8135C20.1434 13.3507 21 14.0446 21 14.875C21 17.0319 15.3282 17.6627 13.5896 17.8054C13.5774 17.8062 13.5651 17.8062 13.5537 17.8062Z" fill="#2D2D2D"/>
</g>
<defs>
<clipPath id="clip0_1_60">
<rect width="21" height="21" fill="white"/>
</clipPath>
</defs>
</svg>
