<svg width="21" height="21" viewBox="0 0 21 21" fill="none" xmlns="http://www.w3.org/2000/svg">
<g clip-path="url(#clip0_1_44)">
<path d="M19.25 11.0833C20.182 11.0833 20.997 11.8421 21 12.8333V19.25C21 20.182 20.2507 21 19.25 21H12.8333C11.9014 21 11.0863 20.2407 11.0833 19.25V12.8333C11.0833 11.9014 11.8348 11.0833 12.8333 11.0833H19.25ZM8.16667 11.0833C9.09865 11.0833 9.9137 11.8421 9.91667 12.8333V19.25C9.91667 20.182 9.16738 21 8.16667 21H1.75C0.818019 21 0.00297074 20.2407 0 19.25V12.8333C0 11.9014 0.751459 11.0833 1.75 11.0833H8.16667ZM19.25 12.25H12.8333C12.5342 12.25 12.25 12.4929 12.25 12.8333V19.25C12.25 19.5492 12.4849 19.8333 12.8333 19.8333H19.25C19.5492 19.8333 19.8333 19.5984 19.8333 19.25V12.8333C19.8333 12.5342 19.6039 12.25 19.25 12.25ZM8.16667 12.25H1.75C1.45085 12.25 1.16667 12.4929 1.16667 12.8333V19.25C1.16667 19.5492 1.40161 19.8333 1.75 19.8333H8.16667C8.46582 19.8333 8.75 19.5984 8.75 19.25V12.8333C8.75 12.5342 8.52059 12.25 8.16667 12.25ZM19.25 0C20.182 0 20.997 0.75872 21 1.75V8.16667C21 9.09865 20.2507 9.91667 19.25 9.91667H12.8333C11.9014 9.91667 11.0863 9.15738 11.0833 8.16667V1.75C11.0833 0.818019 11.8348 0 12.8333 0H19.25ZM8.16667 0C9.09865 0 9.9137 0.75872 9.91667 1.75V8.16667C9.91667 9.09865 9.16738 9.91667 8.16667 9.91667H1.75C0.818019 9.91667 0.00297074 9.15738 0 8.16667V1.75C0 0.818019 0.751459 0 1.75 0H8.16667ZM19.25 1.16667H12.8333C12.5342 1.16667 12.25 1.40956 12.25 1.75V8.16667C12.25 8.46582 12.4849 8.75 12.8333 8.75H19.25C19.5492 8.75 19.8333 8.51507 19.8333 8.16667V1.75C19.8333 1.45085 19.6039 1.16667 19.25 1.16667ZM8.16667 1.16667H1.75C1.45085 1.16667 1.16667 1.40956 1.16667 1.75V8.16667C1.16667 8.46582 1.40161 8.75 1.75 8.75H8.16667C8.46582 8.75 8.75 8.51507 8.75 8.16667V1.75C8.75 1.45085 8.52059 1.16667 8.16667 1.16667Z" fill="#2D2D2D"/>
</g>
<defs>
<clipPath id="clip0_1_44">
<rect width="21" height="21" fill="white"/>
</clipPath>
</defs>
</svg>
