<svg width="20" height="20" viewBox="0 0 20 20" fill="none" xmlns="http://www.w3.org/2000/svg">
<g clip-path="url(#clip0_1_95)">
<path d="M18.5956 8.7197C18.5191 6.53814 17.6356 4.49814 16.0844 2.94689C14.4584 1.32064 12.2975 0.425323 9.99999 0.425323C5.35968 0.425323 1.56812 4.11876 1.40468 8.7197C0.696553 9.03439 0.200928 9.74314 0.200928 10.5669V12.8363C0.200928 13.9506 1.10749 14.8575 2.22218 14.8575C2.94343 14.8575 3.52999 14.2709 3.52999 13.5497V9.85314C3.52999 9.17595 3.01062 8.62376 2.3503 8.55814C2.59405 4.5497 5.93093 1.36282 9.99999 1.36282C12.0475 1.36282 13.9728 2.16095 15.4219 3.61001C16.7525 4.94064 17.5312 6.67501 17.6484 8.55845C16.9887 8.6247 16.4703 9.17657 16.4703 9.85314V13.5494C16.4703 14.2322 16.9978 14.7878 17.6659 14.8456V15.7797C17.6659 16.8316 16.81 17.6872 15.7581 17.6872H14.3453C14.2759 17.4891 14.1672 17.3059 14.0147 17.1541C13.7475 16.8856 13.3912 16.7378 13.0119 16.7378H11.5556C11.3466 16.7378 11.1459 16.7822 10.9622 16.8678C10.4609 17.0981 10.1372 17.6038 10.1372 18.1559C10.1372 18.5353 10.285 18.8916 10.5528 19.1581C10.8206 19.4266 11.1769 19.5744 11.5556 19.5744H13.0119C13.6156 19.5744 14.1478 19.1841 14.3462 18.6247H15.7581C17.3272 18.6247 18.6034 17.3484 18.6034 15.7797V14.6788C19.3072 14.3622 19.7991 13.6559 19.7991 12.8356V10.5663C19.7991 9.74314 19.3034 9.03439 18.5956 8.7197ZM2.59218 9.85314V13.5494C2.59218 13.7534 2.42624 13.9197 2.22187 13.9197C1.62437 13.9197 1.13812 13.4334 1.13812 12.8359V10.5666C1.13812 9.96876 1.62437 9.48282 2.22187 9.48282C2.42624 9.48282 2.59218 9.64907 2.59218 9.85314ZM13.4822 18.2566C13.4356 18.4772 13.2375 18.6375 13.0116 18.6375H11.5553C11.4272 18.6375 11.3069 18.5875 11.215 18.4956C11.1244 18.4053 11.0744 18.2847 11.0744 18.1566C11.0744 17.9694 11.1841 17.7984 11.3559 17.7194C11.4172 17.6906 11.4844 17.6759 11.5553 17.6759H13.0116C13.1397 17.6759 13.26 17.7256 13.3516 17.8175C13.4422 17.9078 13.4922 18.0284 13.4922 18.1566C13.4925 18.1909 13.4887 18.2253 13.4822 18.2566ZM18.8616 12.8359C18.8616 13.4334 18.3753 13.9197 17.7778 13.9197C17.5737 13.9197 17.4075 13.7538 17.4075 13.5494V9.85314C17.4075 9.64907 17.5734 9.48282 17.7778 9.48282C18.3753 9.48282 18.8616 9.96907 18.8616 10.5666V12.8359Z" fill="#2D2D2D"/>
<path d="M13.0353 12.9975C14.1306 12.9975 15.0216 12.1063 15.0216 11.0113V6.96406C15.0216 6.43469 14.8147 5.93594 14.4391 5.56031C14.0635 5.18469 13.565 4.97781 13.0353 4.97781H6.9647C5.86939 4.97781 4.97845 5.86875 4.97845 6.96406V11.0113C4.97845 12.1066 5.86939 12.9975 6.9647 12.9975H7.00189V14.0463C7.00189 14.4463 7.24033 14.8013 7.60908 14.9509C7.72814 14.9988 7.85189 15.0225 7.97439 15.0225C8.2297 15.0225 8.47845 14.9213 8.66064 14.7328L10.4053 12.9975H13.0353ZM9.88189 12.1963L7.99377 14.0741C7.98533 14.0828 7.97908 14.0894 7.96127 14.0816C7.9397 14.0728 7.9397 14.0588 7.9397 14.0463V12.5288C7.9397 12.27 7.73002 12.06 7.47095 12.06H6.96502C6.38658 12.06 5.91627 11.5894 5.91627 11.0113V6.96406C5.91627 6.38563 6.38658 5.91531 6.96502 5.91531H13.0356C13.315 5.91531 13.5778 6.02469 13.7766 6.22313C13.9753 6.42188 14.0844 6.685 14.0844 6.96406V11.0113C14.0844 11.5897 13.6138 12.06 13.0356 12.06H10.2125C10.0885 12.06 9.9697 12.1091 9.88189 12.1963Z" fill="#2D2D2D"/>
<path d="M7.72281 8.37094C7.34156 8.37094 7.03125 8.68157 7.03125 9.0625C7.03125 9.44344 7.34187 9.75407 7.72281 9.75407C8.10437 9.75407 8.415 9.44344 8.415 9.0625C8.415 8.68157 8.10469 8.37094 7.72281 8.37094Z" fill="#2D2D2D"/>
<path d="M9.99967 8.37094C9.61842 8.37094 9.30811 8.68157 9.30811 9.0625C9.30811 9.44344 9.61873 9.75407 9.99967 9.75407C10.3815 9.75407 10.6919 9.44344 10.6919 9.0625C10.6919 8.68157 10.3815 8.37094 9.99967 8.37094Z" fill="#2D2D2D"/>
<path d="M12.2765 8.37094C11.8953 8.37094 11.585 8.68157 11.585 9.0625C11.585 9.44344 11.8956 9.75407 12.2765 9.75407C12.6581 9.75407 12.9687 9.44344 12.9687 9.0625C12.9687 8.68157 12.6581 8.37094 12.2765 8.37094Z" fill="#2D2D2D"/>
</g>
<defs>
<clipPath id="clip0_1_95">
<rect width="20" height="20" fill="white"/>
</clipPath>
</defs>
</svg>
