<svg width="21" height="21" viewBox="0 0 21 21" fill="none" xmlns="http://www.w3.org/2000/svg">
<g clip-path="url(#clip0_1_34)">
<path d="M20.4749 9.09297C20.4743 9.09249 20.4738 9.09185 20.4733 9.09137L11.907 0.525352C11.5419 0.160057 11.0564 -0.0410156 10.54 -0.0410156C10.0236 -0.0410156 9.53817 0.160057 9.17288 0.525352L0.611029 9.08704C0.608145 9.08993 0.605101 9.09297 0.602377 9.09586C-0.147439 9.85 -0.146158 11.0736 0.606062 11.8258C0.949728 12.1696 1.40346 12.3686 1.88876 12.3896C1.90863 12.3915 1.9285 12.3925 1.94852 12.3925H2.28979V18.6964C2.28979 19.944 3.30492 20.959 4.55253 20.959H7.90396C8.24378 20.959 8.51919 20.6834 8.51919 20.3438V15.4014C8.51919 14.8321 8.98238 14.3691 9.55163 14.3691H11.5284C12.0976 14.3691 12.5607 14.8321 12.5607 15.4014V20.3438C12.5607 20.6834 12.8361 20.959 13.1759 20.959H16.5273C17.7751 20.959 18.7901 19.944 18.7901 18.6964V12.3925H19.1067C19.6229 12.3925 20.1083 12.1914 20.4738 11.826C21.2268 11.0726 21.2271 9.84679 20.4749 9.09297ZM19.6037 10.956C19.4708 11.0888 19.2943 11.162 19.1067 11.162H18.1748C17.835 11.162 17.5596 11.4374 17.5596 11.7773V18.6964C17.5596 19.2655 17.0966 19.7285 16.5273 19.7285H13.7911V15.4014C13.7911 14.1538 12.7762 13.1386 11.5284 13.1386H9.55163C8.30386 13.1386 7.28872 14.1538 7.28872 15.4014V19.7285H4.55253C3.98344 19.7285 3.52025 19.2655 3.52025 18.6964V11.7773C3.52025 11.4374 3.24484 11.162 2.90502 11.162H1.98922C1.97961 11.1614 1.97015 11.1609 1.96038 11.1607C1.77709 11.1575 1.60518 11.0848 1.47636 10.9558C1.20239 10.6818 1.20239 10.236 1.47636 9.96183C1.47652 9.96183 1.47652 9.96167 1.47668 9.96151L1.47716 9.96103L10.0432 1.39533C10.1758 1.26251 10.3522 1.18945 10.54 1.18945C10.7276 1.18945 10.904 1.26251 11.0368 1.39533L19.6009 9.95927C19.6022 9.96055 19.6037 9.96183 19.6049 9.96311C19.8775 10.2376 19.877 10.6825 19.6037 10.956Z" fill="#2D2D2D"/>
</g>
<defs>
<clipPath id="clip0_1_34">
<rect width="21" height="21" fill="white"/>
</clipPath>
</defs>
</svg>
