<svg width="22" height="21" viewBox="0 0 22 21" fill="none" xmlns="http://www.w3.org/2000/svg">
<g clip-path="url(#clip0_1_37)">
<path d="M19.8044 8.92194C19.677 8.84864 19.52 8.84864 19.3926 8.92194L18.2963 9.55247V5.12694C18.2963 4.98044 18.2178 4.845 18.0905 4.77175L9.88933 0.054971C9.76194 -0.0183237 9.60498 -0.0183237 9.47759 0.054971L1.27642 4.77171C1.14903 4.84496 1.07056 4.98039 1.07056 5.1269V14.5605C1.07056 14.707 1.14903 14.8425 1.27642 14.9157L9.47759 19.6325C9.54129 19.6691 9.61235 19.6874 9.68346 19.6874C9.75457 19.6874 9.82563 19.6691 9.88933 19.6325L12.5093 18.1256V20.5899C12.5093 20.7364 12.5877 20.8718 12.7151 20.945C12.7788 20.9817 12.8499 21 12.921 21C12.9921 21 13.0632 20.9817 13.1269 20.945L19.8044 17.1045C19.9318 17.0313 20.0103 16.8958 20.0103 16.7493V9.27713C20.0102 9.13063 19.9318 8.99519 19.8044 8.92194ZM9.68346 9.37012L7.98222 8.39169L15.3599 4.14852L17.0611 5.12694L9.68346 9.37012ZM4.60285 7.39526L6.74703 8.62843V10.6656L5.82475 9.5521C5.72646 9.43344 5.56976 9.37967 5.41902 9.41248L4.60285 9.5907V7.39526ZM5.01458 6.68487L12.3922 2.4417L14.5364 3.67487L7.15876 7.91805L5.01458 6.68487ZM9.68346 0.88377L11.5688 1.9681L4.19112 6.21127L2.30575 5.12694L9.68346 0.88377ZM1.89402 5.83733L3.77938 6.9217V10.1005C3.77938 10.2247 3.83587 10.3422 3.933 10.42C4.03013 10.4979 4.15752 10.5277 4.27923 10.5012L5.34961 10.2675L6.84115 12.0683C6.9209 12.1646 7.03824 12.2175 7.1588 12.2175C7.20532 12.2174 7.25239 12.2096 7.29792 12.1933C7.46142 12.1348 7.57045 11.9803 7.57045 11.8073V9.10212L9.27168 10.0805V18.5669L1.89402 14.3238V5.83733ZM10.0952 18.5669V10.0805L17.4729 5.83733V10.0261L16.2598 10.7238L14.8134 9.89191C14.971 9.80139 15.0545 9.61383 15.0052 9.43053C14.9463 9.21175 14.7205 9.08186 14.5009 9.14051L13.6573 9.36569C13.4376 9.42434 13.3073 9.64923 13.3662 9.868L13.5922 10.7084C13.6415 10.8917 13.8078 11.0125 13.9896 11.0125C14.0249 11.0125 14.0608 11.008 14.0964 10.9984C14.2805 10.9493 14.4018 10.7835 14.4017 10.6023L15.4363 11.1974L12.7152 12.7624C12.5878 12.8357 12.5093 12.9711 12.5093 13.1176V17.1785L10.0952 18.5669ZM19.1868 16.5125L13.3327 19.8795V13.3544L19.1868 9.98752V16.5125H19.1868Z" fill="#2D2D2D"/>
<path d="M14.7742 17.839C14.844 17.839 14.9149 17.8212 14.9797 17.784L17.9516 16.0747C18.1486 15.9614 18.216 15.7106 18.1023 15.5144C17.9886 15.3183 17.7368 15.251 17.5399 15.3643L14.5679 17.0736C14.371 17.1869 14.3035 17.4377 14.4172 17.6338C14.4935 17.7654 14.6319 17.839 14.7742 17.839Z" fill="#2D2D2D"/>
<path d="M14.7742 15.9211C14.844 15.9211 14.9149 15.9033 14.9797 15.866L16.4657 15.0114C16.6626 14.8981 16.7301 14.6473 16.6163 14.4511C16.5027 14.255 16.2509 14.1878 16.0539 14.301L14.5679 15.1556C14.371 15.2689 14.3035 15.5197 14.4172 15.7159C14.4935 15.8475 14.6319 15.9211 14.7742 15.9211Z" fill="#2D2D2D"/>
</g>
<defs>
<clipPath id="clip0_1_37">
<rect width="21.0808" height="21" fill="white"/>
</clipPath>
</defs>
</svg>
