<svg width="22" height="21" viewBox="0 0 22 21" fill="none" xmlns="http://www.w3.org/2000/svg">
<g clip-path="url(#clip0_1_49)">
<path d="M21.0512 11.6888C21.0511 11.6887 21.0511 11.6887 21.0511 11.6886L17.0709 1.73309C16.9865 1.52156 16.7458 1.4183 16.5334 1.50245C16.5333 1.5025 16.5331 1.50255 16.533 1.50265L0.386095 7.90756C0.320246 7.9359 0.263138 7.98114 0.220567 8.03865C0.0862817 8.10816 0.00144837 8.24574 0 8.39647V19.1146C0 19.3423 0.185288 19.5268 0.413821 19.5268H17.7943C18.0228 19.5268 18.2081 19.3423 18.2081 19.1146V13.2608L20.8202 12.2245C21.0325 12.1401 21.1359 11.9003 21.0512 11.6888ZM17.3805 18.7024H0.827642V8.8087H17.3805V18.7024ZM6.9046 7.98629L13.8336 5.23586C14.452 5.88338 15.3089 6.2514 16.2061 6.2549L16.8971 7.98629H6.9046ZM18.2081 12.3754V8.39647C18.2081 8.16881 18.0228 7.98423 17.7943 7.98423H17.7877L16.9108 5.79032C16.9011 5.77202 16.8897 5.75461 16.8769 5.73837C16.8325 5.53983 16.6479 5.40436 16.4444 5.42095C15.6096 5.49675 14.793 5.14645 14.2748 4.49012C14.1458 4.33157 13.9191 4.29215 13.7438 4.39778C13.7242 4.4001 13.7047 4.40371 13.6855 4.4085L5.22615 7.7641C5.12378 7.80409 5.04189 7.88339 4.99896 7.98423H2.42996L16.4552 2.42111L20.1295 11.6119L18.2081 12.3754Z" fill="#2D2D2D"/>
<path d="M1.95074 15.9194C2.75418 16.1559 3.38287 16.7814 3.62134 17.5815C3.67363 17.7561 3.83487 17.8758 4.01778 17.8758C4.03924 17.8745 4.06056 17.8713 4.08151 17.8663C4.10008 17.8716 4.11906 17.8755 4.1382 17.8779H14.0699C14.087 17.8757 14.1038 17.8722 14.1204 17.8676C14.3271 17.9177 14.5355 17.7914 14.5858 17.5854C14.586 17.5846 14.5862 17.5839 14.5864 17.5831C14.8242 16.7823 15.453 16.1559 16.2569 15.9189C16.4519 15.8596 16.5731 15.666 16.5408 15.4655C16.5464 15.4455 16.5503 15.4251 16.5528 15.4045V12.1066C16.5504 12.0859 16.5463 12.0655 16.5404 12.0456C16.5729 11.845 16.4517 11.6513 16.2565 11.5921C15.4526 11.3552 14.8239 10.7286 14.5868 9.92751C14.5269 9.73196 14.3307 9.61097 14.1283 9.64472C14.1091 9.63941 14.0896 9.63555 14.0699 9.63318H4.1382C4.11735 9.63565 4.09671 9.63977 4.07654 9.64555C3.87527 9.6136 3.68108 9.73423 3.62134 9.92834C3.38334 10.7291 2.75459 11.3552 1.95074 11.5921C1.75578 11.6515 1.63463 11.845 1.66686 12.0456C1.66148 12.0656 1.6576 12.086 1.65527 12.1066V15.4045C1.65765 15.4239 1.66153 15.443 1.66686 15.4618C1.63293 15.6636 1.75433 15.8593 1.95074 15.9194ZM2.48292 12.274C3.31387 11.9415 3.97246 11.2854 4.30621 10.4576H13.9015C14.2354 11.2854 14.8941 11.9415 15.7252 12.274V15.2371C14.8945 15.5699 14.236 16.2259 13.9019 17.0534H4.30621C3.9721 16.2259 3.31361 15.5699 2.48292 15.2371V12.274Z" fill="#2D2D2D"/>
<path d="M9.10408 16.2289C10.4754 16.2289 11.587 15.1216 11.587 13.7555C11.587 12.3895 10.4754 11.2821 9.10408 11.2821C7.73278 11.2821 6.62115 12.3895 6.62115 13.7555C6.6225 15.121 7.73335 16.2276 9.10408 16.2289ZM9.10408 12.1066C10.0183 12.1066 10.7594 12.8449 10.7594 13.7555C10.7594 14.6662 10.0183 15.4045 9.10408 15.4045C8.1899 15.4045 7.4488 14.6662 7.4488 13.7555C7.4488 12.8449 8.1899 12.1066 9.10408 12.1066Z" fill="#2D2D2D"/>
<path d="M4.55201 14.3739C4.89481 14.3739 5.17274 14.097 5.17274 13.7555C5.17274 13.414 4.89481 13.1372 4.55201 13.1372C4.20921 13.1372 3.93127 13.414 3.93127 13.7555C3.93127 14.0971 4.20921 14.3739 4.55201 14.3739ZM4.55201 13.5494C4.66627 13.5494 4.75892 13.6417 4.75892 13.7555C4.75892 13.8694 4.66627 13.9616 4.55201 13.9616C4.43774 13.9616 4.3451 13.8694 4.3451 13.7555C4.3451 13.6417 4.43774 13.5494 4.55201 13.5494Z" fill="#2D2D2D"/>
<path d="M13.6561 14.3739C13.9989 14.3739 14.2768 14.097 14.2768 13.7555C14.2768 13.414 13.9989 13.1372 13.6561 13.1372C13.3133 13.1372 13.0353 13.414 13.0353 13.7555C13.0353 14.0971 13.3133 14.3739 13.6561 14.3739ZM13.6561 13.5494C13.7703 13.5494 13.863 13.6417 13.863 13.7555C13.863 13.8694 13.7703 13.9616 13.6561 13.9616C13.5418 13.9616 13.4492 13.8694 13.4492 13.7555C13.4492 13.6417 13.5418 13.5494 13.6561 13.5494Z" fill="#2D2D2D"/>
</g>
<defs>
<clipPath id="clip0_1_49">
<rect width="21.0808" height="21" fill="white"/>
</clipPath>
</defs>
</svg>
