<svg width="21" height="21" viewBox="0 0 21 21" fill="none" xmlns="http://www.w3.org/2000/svg">
<g clip-path="url(#clip0_1_69)">
<path d="M18.8125 15.75H16.1875C15.946 15.75 15.75 15.554 15.75 15.3125C15.75 15.071 15.946 14.875 16.1875 14.875H18.8125C19.5361 14.875 20.125 14.2861 20.125 13.5625V7.4375C20.125 6.71387 19.5361 6.125 18.8125 6.125H2.1875C1.46387 6.125 0.875 6.71387 0.875 7.4375V13.5625C0.875 14.2861 1.46387 14.875 2.1875 14.875H4.8125C5.054 14.875 5.25 15.071 5.25 15.3125C5.25 15.554 5.054 15.75 4.8125 15.75H2.1875C0.980875 15.75 0 14.7683 0 13.5625V7.4375C0 6.23175 0.980875 5.25 2.1875 5.25H18.8125C20.0191 5.25 21 6.23175 21 7.4375V13.5625C21 14.7683 20.0191 15.75 18.8125 15.75Z" fill="#2D2D2D"/>
<path d="M12.6875 18.375H7.4375C7.196 18.375 7 18.179 7 17.9375C7 17.696 7.196 17.5 7.4375 17.5H12.6875C12.929 17.5 13.125 17.696 13.125 17.9375C13.125 18.179 12.929 18.375 12.6875 18.375Z" fill="#2D2D2D"/>
<path d="M12.6875 16.625H7.4375C7.196 16.625 7 16.429 7 16.1875C7 15.946 7.196 15.75 7.4375 15.75H12.6875C12.929 15.75 13.125 15.946 13.125 16.1875C13.125 16.429 12.929 16.625 12.6875 16.625Z" fill="#2D2D2D"/>
<path d="M9.1875 14.875H7.4375C7.196 14.875 7 14.679 7 14.4375C7 14.196 7.196 14 7.4375 14H9.1875C9.429 14 9.625 14.196 9.625 14.4375C9.625 14.679 9.429 14.875 9.1875 14.875Z" fill="#2D2D2D"/>
<path d="M16.1875 6.125C15.946 6.125 15.75 5.929 15.75 5.6875V2.1875C15.75 1.46388 15.1611 0.875 14.4375 0.875H6.5625C5.83888 0.875 5.25 1.46388 5.25 2.1875V5.6875C5.25 5.929 5.054 6.125 4.8125 6.125C4.571 6.125 4.375 5.929 4.375 5.6875V2.1875C4.375 0.98175 5.35588 0 6.5625 0H14.4375C15.6441 0 16.625 0.98175 16.625 2.1875V5.6875C16.625 5.929 16.429 6.125 16.1875 6.125Z" fill="#2D2D2D"/>
<path d="M14.4375 21H6.5625C5.35588 21 4.375 20.0183 4.375 18.8125V11.8125C4.375 11.571 4.571 11.375 4.8125 11.375H16.1875C16.429 11.375 16.625 11.571 16.625 11.8125V18.8125C16.625 20.0183 15.6441 21 14.4375 21ZM5.25 12.25V18.8125C5.25 19.5361 5.83888 20.125 6.5625 20.125H14.4375C15.1611 20.125 15.75 19.5361 15.75 18.8125V12.25H5.25Z" fill="#2D2D2D"/>
</g>
<defs>
<clipPath id="clip0_1_69">
<rect width="21" height="21" fill="white"/>
</clipPath>
</defs>
</svg>
