<svg width="22" height="21" viewBox="0 0 22 21" fill="none" xmlns="http://www.w3.org/2000/svg">
<path d="M19.7782 20.6429C19.7088 20.6429 19.6394 20.6263 19.5753 20.5931L16.7566 19.1283C16.7171 19.1082 16.6811 19.0802 16.6486 19.0496L11.0402 13.4644C10.8689 13.2938 10.8689 13.0156 11.0402 12.8458L12.3894 11.5009C12.5536 11.3364 12.847 11.3364 13.0104 11.5009L18.6179 17.0869C18.6495 17.1184 18.6758 17.1543 18.6969 17.1946L20.1673 20.0033C20.256 20.1722 20.2226 20.3796 20.0882 20.5143C20.003 20.5992 19.8915 20.6429 19.7782 20.6429ZM17.2204 18.3846L18.7417 19.1747L17.9485 17.6592L12.6977 12.4302L11.9704 13.1564L17.2204 18.3846Z" fill="#2D2D2D"/>
<path d="M11.0402 13.4654L10.2127 12.6429C9.91409 12.3445 9.72437 11.9682 9.67781 11.5841C9.62775 11.165 9.75599 10.7695 10.0292 10.4974C10.2619 10.2646 10.5852 10.136 10.9391 10.136H10.94C11.3818 10.136 11.836 10.3346 12.1838 10.6802L13.0095 11.5036L12.3884 12.1222L11.5628 11.2989C11.381 11.1186 11.1482 11.011 10.9409 11.011C10.8355 11.0136 10.7389 11.0294 10.651 11.116C10.5386 11.228 10.5395 11.3925 10.55 11.4809C10.572 11.6699 10.6774 11.8676 10.8337 12.0251L11.6612 12.8485L11.0402 13.4654Z" fill="#2D2D2D"/>
<path d="M17.3609 16.6357L17.9821 17.2554L16.6321 18.5983L16.0109 17.9786L17.3609 16.6357Z" fill="#2D2D2D"/>
<path d="M13.4019 12.5091L14.0229 13.1277L12.6739 14.4715L12.0529 13.8529L13.4019 12.5091Z" fill="#2D2D2D"/>
<path d="M20.6416 9.1875C20.4 9.1875 20.2024 8.9915 20.2024 8.75V6.125C20.2024 4.67775 19.0201 3.5 17.5673 3.5H10.211C9.96857 3.5 9.77181 3.304 9.77181 3.0625C9.77181 2.37912 8.68352 0.875 7.52056 0.875H3.12874C1.97281 0.875 0.878365 2.07113 0.878365 3.33637V8.75088C0.878365 8.99238 0.681611 9.18838 0.439183 9.18838C0.196754 9.18838 0 8.99238 0 8.75088V3.33637C0 1.59075 1.49146 0 3.12962 0H7.52144C8.99095 0 10.3015 1.48313 10.5913 2.625H17.5673C19.5059 2.625 21.0808 4.19475 21.0808 6.125V8.75C21.0808 8.9915 20.884 9.1875 20.6416 9.1875Z" fill="#2D2D2D"/>
<path d="M3.09272 21C1.37201 21 0 19.6341 0 17.9559V8.75C0 8.5085 0.196754 8.3125 0.439183 8.3125C0.681611 8.3125 0.878365 8.5085 0.878365 8.75V17.9559C0.878365 19.152 1.85511 20.125 3.05583 20.125C4.29433 20.125 5.27019 19.152 5.27019 17.9559V8.3125C5.27019 6.62375 6.64923 5.25 8.34447 5.25H18.0065C19.7026 5.25 21.0808 6.62375 21.0808 8.3125V14.875C21.0808 15.1156 20.884 15.3125 20.6416 15.3125C20.4 15.3125 20.2024 15.1156 20.2024 14.875V8.3125C20.2024 7.10675 19.2178 6.125 18.0065 6.125H8.34447C7.13496 6.125 6.14856 7.10675 6.14856 8.3125V17.9559C6.14856 19.6341 4.77743 21 3.09272 21Z" fill="#2D2D2D"/>
<path d="M14.9322 21H3.5134C3.27097 21 3.07422 20.8031 3.07422 20.5625C3.07422 20.3219 3.27185 20.125 3.5134 20.125H14.9322C15.1746 20.125 15.3713 20.3219 15.3713 20.5625C15.3713 20.8031 15.1746 21 14.9322 21Z" fill="#2D2D2D"/>
</svg>
