<svg width="21" height="21" viewBox="0 0 21 21" fill="none" xmlns="http://www.w3.org/2000/svg">
<path d="M0.138241 14.0064L2.20993 17.5588C2.33191 17.7644 2.52385 17.9196 2.7509 17.9962C2.87078 18.0354 2.99765 18.0488 3.12312 18.0355C3.24859 18.0221 3.36978 17.9824 3.47866 17.9189L5.60614 16.9522C6.05526 17.2699 6.53274 17.5457 7.03255 17.7763L7.24845 20.13C7.24756 20.1469 7.24756 20.1639 7.24845 20.1808C7.28905 20.4059 7.40623 20.6103 7.5803 20.7595C7.75437 20.9087 7.9747 20.9936 8.20424 21H12.3452C12.5893 21.0008 12.8247 20.91 13.0045 20.7456C13.1843 20.5813 13.2954 20.3554 13.3155 20.1131L13.529 17.7763C14.0317 17.5536 14.5104 17.2808 14.9578 16.9619L17.095 17.943H17.1169C17.3369 18.0364 17.5835 18.0472 17.8109 17.9734C18.0384 17.8997 18.2313 17.7464 18.3541 17.5419L20.4136 14.0113C20.5393 13.7995 20.5816 13.5487 20.5323 13.3076C20.483 13.0666 20.3456 12.8523 20.1468 12.7063L18.3541 11.3458C18.4356 10.7913 18.4356 10.228 18.3541 9.67353L20.2947 8.30334C20.494 8.15773 20.6318 7.94362 20.6816 7.70251C20.7313 7.4614 20.6894 7.21047 20.564 6.99839L18.439 3.45087C18.382 3.34231 18.3037 3.24628 18.2088 3.16847C18.1138 3.09066 18.0041 3.03268 17.8862 2.99796C17.7683 2.96324 17.6446 2.95249 17.5224 2.96637C17.4002 2.98024 17.2821 3.01845 17.1751 3.07871L15.0476 4.04534C14.5983 3.72865 14.1209 3.45362 13.6212 3.22371L13.4077 0.86997C13.4077 0.853054 13.4077 0.836138 13.4077 0.819222C13.3671 0.594075 13.2499 0.38972 13.0759 0.240525C12.9018 0.0913301 12.6815 0.00639562 12.4519 4.96953e-06H8.3037C8.05925 -0.000775428 7.82351 0.0903832 7.64361 0.255256C7.46371 0.42013 7.35291 0.646568 7.33335 0.889302L7.11988 3.22371C6.61447 3.44745 6.13328 3.72194 5.68377 4.04293L3.55628 3.06905H3.53445C3.31413 2.97768 3.06808 2.96869 2.84163 3.04374C2.61519 3.11878 2.42358 3.27281 2.30211 3.47745L0.237702 6.99839C0.111008 7.21264 0.0693808 7.46636 0.121008 7.70965C0.172635 7.95293 0.31378 8.16816 0.516676 8.313L2.44281 9.67595C2.36268 10.224 2.36268 10.7808 2.44281 11.3289L0.40266 12.7063C0.205035 12.8521 0.0686402 13.0657 0.0198079 13.3058C-0.0290244 13.5459 0.0131685 13.7955 0.138241 14.0064ZM0.975164 13.4917L3.2385 11.9548C3.31597 11.9026 3.37666 11.8292 3.41324 11.7434C3.44982 11.6577 3.46075 11.5632 3.44469 11.4715C3.3906 11.1519 3.35979 10.8288 3.35251 10.5048C3.35893 10.1744 3.38974 9.84483 3.44469 9.51887C3.45765 9.43079 3.44593 9.34085 3.41083 9.25897C3.37573 9.1771 3.31861 9.10648 3.24577 9.05489L1.09161 7.52762C1.08533 7.52292 1.08044 7.51663 1.07745 7.5094C1.07446 7.50217 1.07349 7.49427 1.07462 7.48654L3.13661 3.95351C3.14619 3.95134 3.15614 3.95134 3.16572 3.95351L5.55277 5.04822C5.63531 5.08592 5.72681 5.09979 5.81686 5.08826C5.90692 5.07672 5.99192 5.04024 6.0622 4.98297C6.58417 4.57704 7.16066 4.24597 7.77486 3.99943C7.85518 3.96491 7.92463 3.90941 7.97588 3.83879C8.02712 3.76818 8.05825 3.68507 8.06596 3.59828L8.30855 0.971466H12.4325C12.4419 0.98084 12.4486 0.992513 12.4519 1.0053L12.6945 3.60553C12.7022 3.69232 12.7334 3.77543 12.7846 3.84604C12.8358 3.91666 12.9053 3.97216 12.9856 4.00668C13.6002 4.26776 14.1802 4.60294 14.7128 5.00472C14.7818 5.0555 14.863 5.08717 14.9482 5.09651C15.0334 5.10584 15.1196 5.09252 15.198 5.05788L17.6045 3.95593L19.7222 7.50345C19.7241 7.51303 19.7241 7.52287 19.7222 7.53245L17.5487 9.05489C17.4762 9.10628 17.4194 9.17651 17.3843 9.25791C17.3492 9.33931 17.3373 9.42875 17.3497 9.51646C17.404 9.84327 17.434 10.1736 17.4395 10.5048C17.4331 10.8353 17.4023 11.1648 17.3473 11.4908C17.3333 11.578 17.3435 11.6673 17.3769 11.7491C17.4103 11.8309 17.4655 11.902 17.5365 11.9548L19.567 13.4796C19.5733 13.4843 19.5781 13.4906 19.5811 13.4978C19.5841 13.5051 19.5851 13.513 19.584 13.5207L17.5123 17.0537H17.4832L15.0961 15.959C15.0136 15.9213 14.9221 15.9075 14.832 15.919C14.742 15.9305 14.657 15.967 14.5867 16.0243C14.0646 16.4301 13.4882 16.7612 12.874 17.0078C12.7937 17.0423 12.7243 17.0978 12.673 17.1685C12.6218 17.2391 12.5906 17.3222 12.5829 17.409L12.3403 20.0358H8.21637C8.20737 20.0271 8.2007 20.0163 8.19696 20.0044L7.95437 17.4041C7.94701 17.3204 7.91785 17.24 7.86978 17.171C7.82171 17.1019 7.75638 17.0465 7.68025 17.0102C7.06589 16.7498 6.48584 16.4154 5.95304 16.0146C5.88409 15.9638 5.80288 15.9322 5.71765 15.9228C5.63243 15.9135 5.54624 15.9268 5.46786 15.9614L3.06141 17.0634L0.975164 13.5159C0.975164 13.5159 0.984868 13.4845 0.975164 13.4917Z" fill="#2D2D2D"/>
<path d="M10.3487 14.1733C11.0771 14.1733 11.789 13.9581 12.3946 13.5551C13.0002 13.152 13.4722 12.5791 13.7509 11.9088C14.0296 11.2384 14.1025 10.5009 13.9604 9.78927C13.8184 9.07768 13.4676 8.42404 12.9526 7.91102C12.4376 7.39799 11.7815 7.04861 11.0672 6.90707C10.3528 6.76552 9.61241 6.83817 8.93953 7.11582C8.26664 7.39347 7.69152 7.86365 7.28689 8.46691C6.88225 9.07016 6.66628 9.7794 6.66628 10.5049C6.66042 10.9883 6.75167 11.4679 6.93466 11.9156C7.11764 12.3633 7.38867 12.77 7.73179 13.1119C8.07492 13.4537 8.4832 13.7237 8.93262 13.9059C9.38205 14.0882 9.86353 14.1791 10.3487 14.1733ZM10.3487 7.80321C10.8851 7.80321 11.4095 7.96166 11.8555 8.25853C12.3015 8.5554 12.6491 8.97735 12.8544 9.47103C13.0597 9.9647 13.1134 10.5079 13.0087 11.032C12.9041 11.5561 12.6458 12.0375 12.2665 12.4153C11.8872 12.7932 11.4039 13.0505 10.8779 13.1547C10.3518 13.259 9.80643 13.2055 9.31086 13.001C8.81529 12.7965 8.39171 12.4502 8.0937 12.0059C7.79569 11.5616 7.63663 11.0393 7.63663 10.5049C7.63273 10.1491 7.70022 9.79599 7.83513 9.46645C7.97005 9.13691 8.16968 8.83753 8.4223 8.58587C8.67492 8.33422 8.97546 8.13535 9.30627 8.00096C9.63708 7.86656 9.9915 7.79933 10.3487 7.80321Z" fill="#2D2D2D"/>
</svg>
