<svg width="20" height="20" viewBox="0 0 20 20" fill="none" xmlns="http://www.w3.org/2000/svg">
<path d="M15.4167 2.5C16.537 2.5 17.5 3.40318 17.5 4.58333V15.4167C17.5 16.537 16.5981 17.5 15.4167 17.5H4.58333C3.46302 17.5 2.5 16.5937 2.5 15.4167V4.58333C2.5 3.46302 3.39604 2.5 4.58333 2.5H15.4167ZM4.58333 3.33333C3.91763 3.33333 3.33333 3.86852 3.33333 4.58333V15.4167C3.33333 16.0824 3.86282 16.6667 4.58333 16.6667H15.4167C16.0824 16.6667 16.6667 16.1202 16.6667 15.4167V4.58333C16.6667 3.91763 16.118 3.33333 15.4167 3.33333H4.58333ZM13.9016 7.34835C14.0519 7.49855 14.0769 7.7609 13.9016 7.93761L9.18761 12.6516C9.03369 12.8056 8.77009 12.8364 8.58826 12.6412L6.77862 10.7009C6.62167 10.5326 6.63086 10.2689 6.79915 10.112C6.95449 9.96708 7.21708 9.94448 7.38805 10.1325L8.90333 11.7571L13.3124 7.34835C13.4751 7.18563 13.7389 7.18563 13.9016 7.34835Z" fill="black"/>
</svg>
