<svg width="20" height="20" viewBox="0 0 20 20" fill="none" xmlns="http://www.w3.org/2000/svg">
<path d="M9.37167 12.5H3.96167L2.295 16.6667H0.5L5.83333 3.33337H7.5L12.8333 16.6667H11.0383L9.37167 12.5ZM8.705 10.8334L6.66667 5.73754L4.62833 10.8334H8.705ZM17.5 10.4459V10H19.1667V16.6667H17.5V16.2209C16.9933 16.5131 16.4185 16.6669 15.8335 16.6667C15.2485 16.6665 14.6738 16.5124 14.1673 16.2198C13.6608 15.9271 13.2402 15.5064 12.9477 14.9997C12.6553 14.493 12.5013 13.9184 12.5013 13.3334C12.5013 12.7484 12.6553 12.1737 12.9477 11.667C13.2402 11.1604 13.6608 10.7396 14.1673 10.447C14.6738 10.1544 15.2485 10.0002 15.8335 10C16.4185 9.99987 16.9933 10.1536 17.5 10.4459ZM15.8333 15C16.2753 15 16.6993 14.8245 17.0118 14.5119C17.3244 14.1993 17.5 13.7754 17.5 13.3334C17.5 12.8914 17.3244 12.4675 17.0118 12.1549C16.6993 11.8423 16.2753 11.6667 15.8333 11.6667C15.3913 11.6667 14.9674 11.8423 14.6548 12.1549C14.3423 12.4675 14.1667 12.8914 14.1667 13.3334C14.1667 13.7754 14.3423 14.1993 14.6548 14.5119C14.9674 14.8245 15.3913 15 15.8333 15Z" fill="black"/>
</svg>
