<svg width="15" height="15" viewBox="0 0 15 15" fill="none" xmlns="http://www.w3.org/2000/svg">
<g clip-path="url(#clip0_161_4189)">
<path d="M7.5 15C11.6353 15 15 11.6356 15 7.5C15 5.495 14.2203 3.6113 12.8044 2.19559C11.3884 0.779724 9.505 0 7.5 0C3.36441 0 0 3.36441 0 7.5C0 9.505 0.779724 11.3887 2.19559 12.8044C3.6113 14.2203 5.495 15 7.5 15ZM7.5 13.75C6.03943 13.75 4.65622 13.2535 3.54309 12.3407L12.3407 3.54309C13.2535 4.65622 13.75 6.03943 13.75 7.5C13.75 10.9462 10.9462 13.75 7.5 13.75ZM7.5 1.25C8.96027 1.25 10.3438 1.74652 11.4566 2.6593L2.6593 11.4569C1.74652 10.3438 1.25 8.96057 1.25 7.5C1.25 4.0538 4.0538 1.25 7.5 1.25Z" fill="#2D2D2D"/>
</g>
<defs>
<clipPath id="clip0_161_4189">
<rect width="15" height="15" fill="white"/>
</clipPath>
</defs>
</svg>
