<svg width="21" height="20" viewBox="0 0 21 20" fill="none" xmlns="http://www.w3.org/2000/svg">
<path fill-rule="evenodd" clip-rule="evenodd" d="M10.6663 7.36842C10.0852 7.36842 9.61363 6.89579 9.61363 6.31579C9.61363 5.73579 10.0852 5.26316 10.6663 5.26316C11.2473 5.26316 11.7189 5.73579 11.7189 6.31579C11.7189 6.89579 11.2473 7.36842 10.6663 7.36842ZM11.7189 14.7368H9.61363C9.3231 14.7368 9.08731 14.5011 9.08731 14.2105C9.08731 13.92 9.3231 13.6842 9.61363 13.6842H10.1399V9.47368H9.61363C9.3231 9.47368 9.08731 9.2379 9.08731 8.94737C9.08731 8.65684 9.3231 8.42105 9.61363 8.42105H10.6663C10.9568 8.42105 11.1926 8.65684 11.1926 8.94737V13.6842H11.7189C12.0094 13.6842 12.2452 13.92 12.2452 14.2105C12.2452 14.5011 12.0094 14.7368 11.7189 14.7368ZM10.6663 1.05263C5.73258 1.05263 1.71889 5.06632 1.71889 10C1.71889 14.9337 5.73258 18.9474 10.6663 18.9474C15.5999 18.9474 19.6136 14.9337 19.6136 10C19.6136 5.06632 15.5999 1.05263 10.6663 1.05263ZM10.6663 20C5.15258 20 0.66626 15.5137 0.66626 10C0.66626 4.48632 5.15258 0 10.6663 0C16.1799 0 20.6663 4.48632 20.6663 10C20.6663 15.5137 16.1799 20 10.6663 20Z" fill="black"/>
</svg>
