<svg width="20" height="21" viewBox="0 0 20 21" fill="none" xmlns="http://www.w3.org/2000/svg">
<path d="M10.4431 19.0527L10.1543 19.1973L1.66674 15.425V5.51934L9.96366 9.20688C10.0276 9.23529 10.0968 9.24997 10.1668 9.24997C10.2368 9.24997 10.306 9.23529 10.3699 9.20688L18.6668 5.51934V9.74997C18.6681 9.88174 18.7214 10.0077 18.815 10.1004C18.9086 10.1931 19.0351 10.2452 19.1668 10.2452C19.2986 10.2452 19.4251 10.1931 19.5187 10.1004C19.6123 10.0077 19.6656 9.88174 19.6668 9.74997V4.74993C19.6668 4.65323 19.6388 4.5586 19.5861 4.47751C19.5334 4.39642 19.4583 4.33234 19.37 4.29304L10.3699 0.293033C10.306 0.264659 10.2368 0.25 10.1668 0.25C10.0968 0.25 10.0276 0.264659 9.96366 0.293033L0.963609 4.29304C0.875251 4.33234 0.800182 4.39642 0.747494 4.47751C0.694806 4.5586 0.666759 4.65323 0.666748 4.74993V15.75C0.666762 15.8467 0.694813 15.9413 0.747502 16.0224C0.800192 16.1034 0.875258 16.1675 0.963609 16.2068L9.96366 20.2068C10.031 20.2368 10.1042 20.2515 10.178 20.2499C10.2517 20.2483 10.3242 20.2303 10.3902 20.1974L10.8902 19.9474C10.9494 19.9183 11.0021 19.8777 11.0455 19.8281C11.0889 19.7785 11.122 19.7208 11.1431 19.6583C11.1641 19.5959 11.1725 19.5299 11.168 19.4641C11.1634 19.3984 11.1458 19.3342 11.1164 19.2752C11.0869 19.2163 11.0461 19.1638 10.9962 19.1207C10.9464 19.0775 10.8885 19.0447 10.8259 19.024C10.7633 19.0034 10.6973 18.9953 10.6315 19.0002C10.5658 19.0052 10.5017 19.0231 10.443 19.0529L10.4431 19.0527ZM10.1666 8.20281L6.62928 6.63057L14.3699 3.19035C14.3788 3.18636 14.3862 3.18055 14.3948 3.17628L17.9357 4.74993L10.1666 8.20281ZM10.1666 1.29701L13.1671 2.63051L5.46363 6.05428C5.4438 6.06393 5.42463 6.07489 5.40626 6.0871L2.39799 4.74993L10.1666 1.29701Z" fill="#2D2D2D"/>
</svg>
