<svg width="22" height="22" viewBox="0 0 22 22" fill="none" xmlns="http://www.w3.org/2000/svg">
<path d="M20.5291 21.1768L20.4407 21.0884L15.0115 15.6599C14.0155 16.5549 12.8213 17.2015 11.5264 17.546C10.1927 17.9007 8.79267 17.9243 7.44786 17.6145C6.10305 17.3048 4.85421 16.6712 3.80986 15.7687C2.76551 14.8663 1.95726 13.7223 1.45536 12.4363C0.953453 11.1502 0.773075 9.76101 0.929901 8.38936C1.08673 7.01771 1.57601 5.70512 2.35523 4.56568C3.13446 3.42624 4.18004 2.49443 5.40111 1.85123C6.62218 1.20804 7.98179 0.87292 9.36176 0.87501L20.5291 21.1768ZM20.5291 21.1768L20.6175 21.0884M20.5291 21.1768L20.6175 21.0884M20.6175 21.0884L21.0884 20.6173L21.1767 20.529M20.6175 21.0884L21.1767 20.529M21.1767 20.529L21.0885 20.4406M21.1767 20.529L21.0885 20.4406M21.0885 20.4406L15.6655 15.0052M21.0885 20.4406L15.6655 15.0052M15.6655 15.0052C16.7346 13.8096 17.4433 12.3343 17.7079 10.7505C17.9791 9.12715 17.7722 7.45997 17.1123 5.95234C16.4525 4.44471 15.3683 3.16183 13.992 2.26023C12.6157 1.35863 11.0069 0.877314 9.36178 0.87501L15.6655 15.0052ZM9.36159 16.9124C7.86716 16.9124 6.40629 16.4691 5.16371 15.6384C3.92113 14.8078 2.95265 13.6271 2.38075 12.2458C1.80884 10.8644 1.6592 9.34444 1.95076 7.87801C2.24231 6.41159 2.96196 5.06459 4.0187 4.00737C5.07543 2.95014 6.42178 2.23017 7.88749 1.93849C9.35321 1.6468 10.8725 1.79651 12.2531 2.36867C13.6338 2.94083 14.8139 3.90975 15.6442 5.15292C16.4744 6.39609 16.9176 7.85767 16.9176 9.35283C16.9176 11.3578 16.1215 13.2806 14.7045 14.6983C13.2874 16.116 11.3656 16.9124 9.36159 16.9124Z" fill="#2D2D2D" stroke="#2D2D2D" stroke-width="0.25"/>
<path d="M9.6276 6.45469V6.32969H9.5026H8.86088H8.73588V6.45469V8.73611H6.45447H6.32947V8.86111V9.50282V9.62782H6.45447H8.73588V11.9092V12.0342H8.86088H9.5026H9.6276V11.9092V9.62782H11.909H12.034V9.50282V8.86111V8.73611H11.909H9.6276V6.45469Z" fill="#2D2D2D" stroke="#2D2D2D" stroke-width="0.25"/>
</svg>
